<svg viewBox="0 0 100 100" xmlns:serif="http://www.serif.com/" fill-rule="evenodd" clip-rule="evenodd" stroke-linejoin="round" stroke-miterlimit="1.414"><path id="Artboard1" fill="none" d="M0 0h100v100H0z"/><g id="Artboard11" serif:id="Artboard1"><g id="rss-icon"><path id="bg" d="M10 78.435c0 6.036 4.901 10.937 10.937 10.937h58.126C85.099 89.372 90 84.471 90 78.435V20.31c0-6.037-4.901-10.938-10.937-10.938H20.938C14.901 9.372 10 14.273 10 20.31v58.125z" fill="#c5d7de"/><path id="icon" d="M22.665 51.099c6.829 0 13.248 2.667 18.073 7.519 4.833 4.852 7.494 11.315 7.494 18.194h10.523c0-19.982-16.191-36.238-36.09-36.238v10.525zm.017-18.656c24.337 0 44.138 19.909 44.138 44.382h10.524c0-30.277-24.523-54.906-54.662-54.906v10.524zm14.552 37.031a7.29 7.29 0 0 1-14.578 0 7.29 7.29 0 0 1 14.578 0z" fill="#fff" fill-rule="nonzero"/></g></g></svg>