<svg viewBox="0 0 100 100" xmlns:serif="http://www.serif.com/" fill-rule="evenodd" clip-rule="evenodd" stroke-linejoin="round" stroke-miterlimit="1.414"><path id="Artboard1" fill="none" d="M0 0h100v100H0z"/><g id="Artboard11" serif:id="Artboard1"><path id="twitter-icon" d="M35.158 79.628c30.189 0 46.701-25.012 46.701-46.701 0-.711 0-1.418-.048-2.122A33.392 33.392 0 0 0 90 22.309a32.758 32.758 0 0 1-9.427 2.583 16.479 16.479 0 0 0 7.216-9.079 32.896 32.896 0 0 1-10.423 3.984 16.433 16.433 0 0 0-11.967-5.174c-9.013 0-16.429 7.417-16.429 16.429 0 1.251.143 2.497.425 3.715a46.618 46.618 0 0 1-33.827-17.149c-4.332 7.457-2.091 17.121 5.082 21.91a16.29 16.29 0 0 1-7.45-2.054v.208c.002 7.783 5.539 14.548 13.168 16.09a16.383 16.383 0 0 1-7.411.281c2.145 6.67 8.33 11.267 15.334 11.399A32.948 32.948 0 0 1 10 72.255a46.474 46.474 0 0 0 25.158 7.36" fill="#c5d7dd" fill-rule="nonzero"/></g></svg>