<?xml version="1.0" encoding="UTF-8" standalone="no"?>
<!DOCTYPE svg PUBLIC "-//W3C//DTD SVG 1.1//EN" "http://www.w3.org/Graphics/SVG/1.1/DTD/svg11.dtd">
<svg width="100%" height="100%" viewBox="0 0 64 64" version="1.1" xmlns="http://www.w3.org/2000/svg" xmlns:xlink="http://www.w3.org/1999/xlink" xml:space="preserve" xmlns:serif="http://www.serif.com/" style="fill-rule:evenodd;clip-rule:evenodd;stroke-linejoin:round;stroke-miterlimit:1.41421;">
    <g transform="matrix(1,0,0,1,-9.57363,27.5825)">
        <path d="M17.222,21.667L17.222,-12.692L21.769,-12.692L21.769,1.417L39.628,1.417L39.628,-12.692L44.175,-12.692L44.175,21.667L39.628,21.667L39.628,5.472L21.769,5.472L21.769,21.667L17.222,21.667Z" style="fill-rule:nonzero;"/>
        <path d="M65.925,21.667L61.706,21.667L61.706,-5.215C60.691,-4.247 59.359,-3.278 57.71,-2.309C56.062,-1.34 54.581,-0.614 53.269,-0.129L53.269,-4.208C55.628,-5.317 57.691,-6.661 59.456,-8.239C61.222,-9.817 62.472,-11.348 63.206,-12.833L65.925,-12.833L65.925,21.667Z" style="fill-rule:nonzero;"/>
    </g>
</svg>
