<?xml version="1.0" encoding="UTF-8" standalone="no"?><!DOCTYPE svg PUBLIC "-//W3C//DTD SVG 1.1//EN" "http://www.w3.org/Graphics/SVG/1.1/DTD/svg11.dtd"><svg width="100%" height="100%" viewBox="0 0 100 100" version="1.1" xmlns="http://www.w3.org/2000/svg" xmlns:xlink="http://www.w3.org/1999/xlink" xml:space="preserve" xmlns:serif="http://www.serif.com/" style="fill-rule:evenodd;clip-rule:evenodd;stroke-linejoin:round;stroke-miterlimit:1.41421;"><rect id="Artboard1" x="0" y="0" width="100" height="100" style="fill:none;"/><g id="Artboard11" serif:id="Artboard1"><g id="rss-icon"><path id="bg" d="M10,78.435c0,6.036 4.901,10.937 10.937,10.937l58.126,0c6.036,0 10.937,-4.901 10.937,-10.937l0,-58.125c0,-6.037 -4.901,-10.938 -10.937,-10.938l-58.125,0c-6.037,0 -10.938,4.901 -10.938,10.938l0,58.125Z" style="fill:#c5d7de;"/><path id="icon" d="M22.665,51.099c6.829,0 13.248,2.667 18.073,7.519c4.833,4.852 7.494,11.315 7.494,18.194l10.523,0c0,-19.982 -16.191,-36.238 -36.09,-36.238l0,10.525Zm0.017,-18.656c24.337,0 44.138,19.909 44.138,44.382l10.524,0c0,-30.277 -24.523,-54.906 -54.662,-54.906l0,10.524Zm14.552,37.031c0,4.024 -3.265,7.288 -7.289,7.288c-4.024,0 -7.289,-3.263 -7.289,-7.288c0,-4.027 3.263,-7.289 7.288,-7.289c4.024,0 7.29,3.262 7.29,7.289Z" style="fill:#fff;fill-rule:nonzero;"/></g></g></svg>