<?xml version="1.0" encoding="UTF-8" standalone="no"?><!DOCTYPE svg PUBLIC "-//W3C//DTD SVG 1.1//EN" "http://www.w3.org/Graphics/SVG/1.1/DTD/svg11.dtd"><svg width="100%" height="100%" viewBox="0 0 100 100" version="1.1" xmlns="http://www.w3.org/2000/svg" xmlns:xlink="http://www.w3.org/1999/xlink" xml:space="preserve" xmlns:serif="http://www.serif.com/" style="fill-rule:evenodd;clip-rule:evenodd;stroke-linejoin:round;stroke-miterlimit:1.41421;"><rect id="Artboard1" x="0" y="0" width="100" height="100" style="fill:none;"/><g id="Artboard11" serif:id="Artboard1"><path id="twitter-icon" d="M35.158,79.628c30.189,0 46.701,-25.012 46.701,-46.701c0,-0.711 0,-1.418 -0.048,-2.122c3.212,-2.323 5.985,-5.2 8.189,-8.496c-2.996,1.328 -6.173,2.198 -9.427,2.583c3.425,-2.051 5.991,-5.279 7.216,-9.079c-3.222,1.912 -6.747,3.259 -10.423,3.984c-3.103,-3.3 -7.437,-5.174 -11.967,-5.174c-9.013,0 -16.429,7.417 -16.429,16.429c0,1.251 0.143,2.497 0.425,3.715c-13.19,-0.661 -25.497,-6.9 -33.827,-17.149c-4.332,7.457 -2.091,17.121 5.082,21.91c-2.612,-0.077 -5.168,-0.782 -7.45,-2.054c0,0.067 0,0.138 0,0.208c0.002,7.783 5.539,14.548 13.168,16.09c-2.416,0.659 -4.952,0.755 -7.411,0.281c2.145,6.67 8.33,11.267 15.334,11.399c-5.811,4.566 -12.993,7.047 -20.384,7.04c-1.306,-0.003 -2.61,-0.082 -3.907,-0.237c7.505,4.816 16.241,7.372 25.158,7.36" style="fill:#c5d7dd;fill-rule:nonzero;"/></g></svg>